<?xml version="1.0" encoding="utf-8"?>
<svg width="349" height="60.076" viewBox="0 0 349 60.076" fill="none" xmlns="http://www.w3.org/2000/svg">
  <g>
    <g fill="#000000">
      <path d="M14.352 34.316L14.352 34.5Q14.352 36.846 16.33 38.617Q18.308 40.388 22.034 40.388L22.264 40.388Q26.036 40.388 27.692 38.64Q29.348 36.892 29.348 34.5L29.348 34.316Q29.348 31.832 27.715 30.153Q26.082 28.474 22.264 28.474L22.034 28.474Q18.216 28.474 16.284 30.176Q14.352 31.878 14.352 34.316ZM1.84 22.08L14.352 22.08L14.352 25.53Q15.18 24.794 16.307 24.081Q17.434 23.368 20.286 22.494Q23.138 21.62 26.404 21.62L27.37 21.62Q31.464 21.62 34.431 22.609Q37.398 23.598 39.008 25.369Q40.618 27.14 41.331 29.187Q42.044 31.234 42.044 33.718L42.044 34.684Q42.044 37.122 41.285 39.261Q40.526 41.4 38.87 43.263Q37.214 45.126 34.178 46.207Q31.142 47.288 27.002 47.288L26.128 47.288Q22.954 47.288 20.171 46.529Q17.388 45.77 16.215 45.08Q15.042 44.39 14.352 43.792L14.352 55.476L1.84 55.476L1.84 22.08ZM57.27 12.604L57.27 20.01L44.758 20.01L44.758 12.604L57.27 12.604ZM57.27 22.08L57.27 46.828L44.758 46.828L44.758 22.08L57.27 22.08ZM73.462 34.316L73.462 34.5Q73.462 36.846 75.44 38.617Q77.418 40.388 81.144 40.388L81.374 40.388Q85.146 40.388 86.802 38.64Q88.458 36.892 88.458 34.5L88.458 34.316Q88.458 31.832 86.825 30.153Q85.192 28.474 81.374 28.474L81.144 28.474Q77.326 28.474 75.394 30.176Q73.462 31.878 73.462 34.316ZM60.95 22.08L73.462 22.08L73.462 25.53Q74.29 24.794 75.417 24.081Q76.544 23.368 79.396 22.494Q82.248 21.62 85.514 21.62L86.48 21.62Q90.574 21.62 93.541 22.609Q96.508 23.598 98.118 25.369Q99.728 27.14 100.441 29.187Q101.154 31.234 101.154 33.718L101.154 34.684Q101.154 37.122 100.395 39.261Q99.636 41.4 97.98 43.263Q96.324 45.126 93.288 46.207Q90.252 47.288 86.112 47.288L85.238 47.288Q82.064 47.288 79.281 46.529Q76.498 45.77 75.325 45.08Q74.152 44.39 73.462 43.792L73.462 55.476L60.95 55.476L60.95 22.08ZM122.452 27.462Q116.334 27.462 115.322 31.188L129.582 31.188Q128.8 27.462 122.452 27.462ZM142.002 37.812L142.002 37.904Q142.002 39.146 141.68 40.25Q141.358 41.354 140.208 42.757Q139.058 44.16 137.172 45.149Q135.286 46.138 131.813 46.828Q128.34 47.518 123.74 47.518L121.302 47.518Q116.932 47.518 113.574 46.736Q110.216 45.954 108.238 44.712Q106.26 43.47 105.018 41.745Q103.776 40.02 103.339 38.341Q102.902 36.662 102.902 34.776L102.902 33.856Q102.902 21.39 121.164 21.39L123.694 21.39Q127.052 21.39 129.789 21.827Q132.526 22.264 134.412 23Q136.298 23.736 137.701 24.84Q139.104 25.944 139.932 27.071Q140.76 28.198 141.266 29.601Q141.772 31.004 141.933 32.223Q142.094 33.442 142.094 34.868L142.094 36.248L115.184 36.248Q115.828 40.802 122.682 40.802L122.728 40.802Q124.384 40.802 125.695 40.526Q127.006 40.25 127.719 39.905Q128.432 39.56 128.892 39.1Q129.352 38.64 129.49 38.341Q129.628 38.042 129.674 37.812L142.002 37.812ZM164.956 46.828L150.834 46.828L141.082 22.08L154.1 22.08L158.93 37.674L163.668 22.08L176.548 22.08L181.378 37.628L186.116 22.08L198.076 22.08L188.876 46.828L174.892 46.828L169.924 31.832L164.956 46.828ZM219.466 47.518L216.062 47.518Q211.508 47.518 208.058 46.667Q204.608 45.816 202.607 44.551Q200.606 43.286 199.364 41.492Q198.122 39.698 197.708 38.088Q197.294 36.478 197.294 34.684L197.294 33.948Q197.294 32.2 197.708 30.613Q198.122 29.026 199.341 27.278Q200.56 25.53 202.538 24.288Q204.516 23.046 207.989 22.218Q211.462 21.39 216.016 21.39L219.512 21.39Q238.188 21.39 238.188 33.902L238.188 34.73Q238.188 36.57 237.866 38.111Q237.544 39.652 236.371 41.492Q235.198 43.332 233.266 44.574Q231.334 45.816 227.792 46.667Q224.25 47.518 219.466 47.518ZM217.81 28.382L217.764 28.382Q213.532 28.382 211.761 30.061Q209.99 31.74 209.99 34.178L209.99 34.362Q209.99 36.846 211.761 38.663Q213.532 40.48 217.764 40.48L217.81 40.48Q221.95 40.48 223.744 38.617Q225.538 36.754 225.538 34.362L225.538 34.178Q225.538 31.74 223.767 30.061Q221.996 28.382 217.81 28.382ZM253.322 22.08L253.322 26.634Q254.012 25.622 255.047 24.633Q256.082 23.644 258.474 22.586Q260.866 21.528 263.672 21.528L264.224 21.528Q267.168 21.528 269.284 22.471Q271.4 23.414 272.504 25.047Q273.608 26.68 274.114 28.497Q274.62 30.314 274.62 32.476L274.62 34.96L262.476 34.96L262.476 34.086Q262.476 31.832 261.395 30.429Q260.314 29.026 258.014 29.026Q255.852 29.026 254.633 30.498Q253.414 31.97 253.414 34.362L253.414 46.828L240.902 46.828L240.902 22.08L253.322 22.08ZM289.754 46.828L277.242 46.828L277.242 12.604L289.754 12.604L289.754 31.74L298.218 22.08L311.696 22.08L301.622 33.028L313.168 46.828L298.954 46.828L289.754 35.696L289.754 46.828ZM330.51 47.518L327.98 47.518C316.971 47.518 311.466 44.5893 311.466 38.732L311.466 38.41L324.208 38.41Q324.208 38.87 324.369 39.284Q324.53 39.698 324.99 40.25Q325.45 40.802 326.577 41.124Q327.704 41.446 329.314 41.446L329.406 41.446Q332.396 41.446 333.454 40.894Q334.512 40.342 334.512 39.376L334.512 39.284Q334.512 38.318 333.592 37.835Q332.672 37.352 329.774 37.26L324.53 37.122C316.005 36.8153 311.742 34.224 311.742 29.348L311.742 29.072Q311.742 27.416 312.386 26.151Q313.03 24.886 314.709 23.736Q316.388 22.586 319.723 21.988Q323.058 21.39 327.98 21.39L330.418 21.39Q346.656 21.39 346.656 29.072L346.656 29.394L334.144 29.394Q334.052 28.796 333.822 28.405Q333.592 28.014 332.419 27.554Q331.246 27.094 329.176 27.094L329.13 27.094Q326.278 27.094 325.289 27.485Q324.3 27.876 324.3 28.796L324.3 28.842Q324.3 29.67 325.266 30.13Q326.232 30.59 328.9 30.682L334.098 30.82Q339.572 31.004 342.562 31.97Q345.552 32.936 346.564 34.5Q347.576 36.064 347.576 38.686L347.576 39.008Q347.576 40.48 347.208 41.653Q346.84 42.826 345.736 43.953Q344.632 45.08 342.792 45.839Q340.952 46.598 337.847 47.058Q334.742 47.518 330.51 47.518Z" />
      <path fill="#000000" fill-rule="evenodd" />
    </g>
  </g>
</svg>